<svg id="Capa_1" data-name="Capa 1" xmlns="http://www.w3.org/2000/svg" xmlns:xlink="http://www.w3.org/1999/xlink" viewBox="0 0 452 368"><defs><style>.cls-1{fill:#c90909;}.cls-10,.cls-16,.cls-17,.cls-18,.cls-2,.cls-8{stroke:#aaa;}.cls-10,.cls-12,.cls-13,.cls-14,.cls-16,.cls-17,.cls-18,.cls-19,.cls-2,.cls-21,.cls-3,.cls-4,.cls-5,.cls-8,.cls-9{stroke-miterlimit:10;}.cls-2{fill:url(#Degradado_sin_nombre_64);}.cls-11,.cls-13,.cls-14,.cls-19,.cls-3{fill:none;}.cls-3{stroke:#8e0000;}.cls-3,.cls-4{stroke-width:10px;}.cls-4{fill:#fff;stroke:#e2d5d5;}.cls-5{fill:#40ff00;stroke:#8c8c8c;}.cls-6{fill:#8e0000;}.cls-7{fill:#2a2772;}.cls-8{fill:url(#Degradado_sin_nombre_14);}.cls-9{fill:#e8eae8;}.cls-12,.cls-13,.cls-14,.cls-21,.cls-9{stroke:#000;}.cls-12,.cls-13,.cls-21,.cls-9{stroke-width:2px;}.cls-10,.cls-16,.cls-17,.cls-18{stroke-width:0.5px;}.cls-10{fill:url(#Degradado_sin_nombre_21);}.cls-12{fill:#2a0000;}.cls-15{fill:#6d6d6d;}.cls-16{fill:url(#Degradado_sin_nombre_23);}.cls-17{fill:url(#Degradado_sin_nombre_34);}.cls-18{fill:url(#Degradado_sin_nombre_45);}.cls-19{stroke:#c90909;stroke-width:6px;}.cls-20{fill:#6f6f70;}.cls-22{fill:#757272;}</style><radialGradient id="Degradado_sin_nombre_64" cx="52.97" cy="45.82" r="21.59" gradientUnits="userSpaceOnUse"><stop offset="0" stop-color="#f9fcff"/><stop offset="0.06" stop-color="#ecf6ff"/><stop offset="0.39" stop-color="#b1d9ff"/><stop offset="0.66" stop-color="#86c5ff"/><stop offset="0.87" stop-color="#6bb8ff"/><stop offset="1" stop-color="#61b3ff"/></radialGradient><linearGradient id="Degradado_sin_nombre_14" x1="343.83" y1="168.6" x2="343.44" y2="208.51" gradientUnits="userSpaceOnUse"><stop offset="0.13" stop-color="#dbeeff"/><stop offset="0.33" stop-color="#b0d9ff"/><stop offset="0.55" stop-color="#85c5ff"/><stop offset="0.73" stop-color="#6bb8ff"/><stop offset="0.83" stop-color="#61b3ff"/></linearGradient><radialGradient id="Degradado_sin_nombre_21" cx="408.55" cy="262.73" r="10" gradientUnits="userSpaceOnUse"><stop offset="0.18" stop-color="#feffe7"/><stop offset="1" stop-color="#f2ff2a"/></radialGradient><radialGradient id="Degradado_sin_nombre_23" cx="87.05" cy="17.23" r="4.5" gradientUnits="userSpaceOnUse"><stop offset="0.32" stop-color="#f5d6d7"/><stop offset="1" stop-color="#c81d25"/></radialGradient><radialGradient id="Degradado_sin_nombre_34" cx="106.05" cy="17.23" r="4.5" xlink:href="#Degradado_sin_nombre_21"/><radialGradient id="Degradado_sin_nombre_45" cx="125.05" cy="17.23" r="4.5" gradientUnits="userSpaceOnUse"><stop offset="0.12" stop-color="#f0f8ef"/><stop offset="0.24" stop-color="#d2eacf"/><stop offset="0.51" stop-color="#90cb89"/><stop offset="0.74" stop-color="#60b555"/><stop offset="0.91" stop-color="#42a736"/><stop offset="1" stop-color="#37a22a"/></radialGradient></defs><title>pokedex</title><rect class="cls-1" x="10.55" y="7.73" width="234" height="349" rx="12"/><circle class="cls-2" cx="52.97" cy="45.82" r="21.59"/><polyline class="cls-3" points="10.55 81.73 134.21 79.73 170.03 46.73 244 46.73"/><rect class="cls-4" x="19.55" y="94.73" width="219.45" height="150"/><rect class="cls-5" x="64.55" y="280.73" width="56" height="35"/><rect class="cls-6" x="60.55" y="260.73" width="27" height="5" rx="2.5"/><rect class="cls-7" x="102.55" y="260.73" width="27" height="5" rx="2.5"/><polygon class="cls-1" points="244.55 50.84 327.55 47.73 367.55 85.73 443.55 85.73 445.55 342.73 244.55 342.73 244.55 50.84"/><rect class="cls-5" x="268.55" y="112.73" width="150" height="46"/><rect class="cls-8" x="268.55" y="174.73" width="150" height="46"/><rect class="cls-9" x="270.55" y="244.73" width="56" height="21"/><circle class="cls-10" cx="408.55" cy="262.73" r="10"/><rect class="cls-11" x="261.25" y="184.92" width="27" height="5" rx="2.5"/><rect class="cls-12" x="363.55" y="229.73" width="27" height="5" rx="2.5"/><rect class="cls-12" x="395.55" y="229.73" width="27" height="5" rx="2.5"/><line class="cls-13" x1="297.18" y1="174.73" x2="297.18" y2="220.73"/><line class="cls-13" x1="326.55" y1="174.73" x2="326.55" y2="220.73"/><line class="cls-13" x1="358.55" y1="174.73" x2="358.55" y2="220.73"/><line class="cls-13" x1="390.55" y1="174.73" x2="390.55" y2="220.73"/><line class="cls-14" x1="297.18" y1="243.73" x2="297.55" y2="266.73"/><line class="cls-13" x1="268.55" y1="198.75" x2="418.55" y2="198.75"/><circle class="cls-15" cx="41" cy="278" r="13"/><circle cx="39.55" cy="275.73" r="13"/><circle class="cls-16" cx="87.05" cy="17.23" r="4.5"/><circle class="cls-17" cx="106.05" cy="17.23" r="4.5"/><circle class="cls-18" cx="125.05" cy="17.23" r="4.5"/><polyline class="cls-19" points="10.99 77.79 134.42 75.79 170.18 42.79 244 42.79"/><path class="cls-20" d="M164.79,261h12.43a3.79,3.79,0,0,1,3.79,3.79v55.43a4.79,4.79,0,0,1-4.79,4.79H164.79a4.79,4.79,0,0,1-4.79-4.79V265.79a4.79,4.79,0,0,1,4.79-4.79Z" transform="translate(-0.72 0.42) rotate(-0.14)"/><rect class="cls-20" x="160.5" y="260.5" width="21" height="64" rx="3.2" transform="translate(463.08 120.78) rotate(89.86)"/><rect class="cls-21" x="160.55" y="260.73" width="17" height="61" rx="4.79"/><rect class="cls-21" x="161.55" y="260.73" width="17" height="61" rx="3.2" transform="translate(461.28 121.18) rotate(90)"/><rect class="cls-22" x="271" y="289" width="59" height="26"/><rect class="cls-22" x="359" y="289" width="60" height="26"/><rect class="cls-12" x="270.55" y="289.73" width="56" height="21"/><rect class="cls-12" x="358.55" y="289.73" width="56" height="21"/></svg>