<svg id="Capa_1" data-name="Capa 1" xmlns="http://www.w3.org/2000/svg" viewBox="0 0 280 281"><defs><style>.cls-1{fill:#fff;}.cls-2{fill:#e71a00;stroke:#000;stroke-miterlimit:10;stroke-width:0.25px;}</style></defs><title>pokebola</title><path class="cls-1" d="M276,139A136,136,0,0,1,4,139"/><path class="cls-2" d="M4,139a136,136,0,0,1,272,0"/><path d="M140,5a134,134,0,0,1,94.75,228.75A134,134,0,1,1,45.25,44.25,133.12,133.12,0,0,1,140,5m0-2A136,136,0,1,0,276,139,136,136,0,0,0,140,3Z"/><circle cx="141" cy="139" r="64"/><circle class="cls-1" cx="140.36" cy="138.56" r="40.06"/><path d="M140.36,99a39.56,39.56,0,1,1-39.56,39.56A39.61,39.61,0,0,1,140.36,99m0-1a40.56,40.56,0,1,0,40.56,40.56A40.56,40.56,0,0,0,140.36,98Z"/><path d="M139.5,112A26.5,26.5,0,1,1,113,138.5,26.53,26.53,0,0,1,139.5,112m0-1A27.5,27.5,0,1,0,167,138.5,27.5,27.5,0,0,0,139.5,111Z"/><path d="M198.61,123.5a69.21,69.21,0,0,1,.35,25l76,.5,1-13-2-12Z"/><path d="M81.91,137a69.6,69.6,0,0,1,1.33-13.5L5,124,4,136l1,12,77.88.5A70.07,70.07,0,0,1,81.91,137Z"/></svg>